<?xml version="1.0" encoding="utf-8"?>
<!-- Generator: Adobe Illustrator 26.0.2, SVG Export Plug-In . SVG Version: 6.00 Build 0)  -->
<svg version="1.1" id="Layer_1" xmlns="http://www.w3.org/2000/svg" xmlns:xlink="http://www.w3.org/1999/xlink" x="0px" y="0px"
	 viewBox="0 0 136.8 111.81" style="enable-background:new 0 0 136.8 111.81;" xml:space="preserve">
<path d="M123.85,32.9c0.46-1.86,0.17-3.64-0.84-5.04c-1.62-2.25-4.31-2.52-4.84-2.56L46.9,24.82c-0.01,0-0.02,0-0.02,0
	c-2.06,0-3.74,1.66-3.75,3.73c-0.01,2.07,1.65,3.76,3.73,3.77l69.36,0.46l-7.27,33.33H47.08L36.06,15.82l-0.11-0.43
	c-1.88-5.64-6.27-6.73-8.66-6.52h-12.4c-2.07,0-3.75,1.68-3.75,3.75s1.68,3.75,3.75,3.75H27.8l0.1-0.02
	c0.24,0.06,0.58,0.44,0.87,1.22L42.28,79.9c0.06,0.28,0.15,0.58,0.24,0.89c-5.41,1.34-9.44,6.22-9.44,12.03
	c0,6.84,5.57,12.41,12.41,12.41c6.84,0,12.41-5.57,12.41-12.41c0-1.74-0.36-3.4-1.02-4.91h40.91c-0.65,1.51-1.02,3.17-1.02,4.91
	c0,6.84,5.57,12.41,12.41,12.41c6.84,0,12.41-5.57,12.41-12.41c0-6.84-5.57-12.41-12.41-12.41H51.02c-0.56,0-1.24-1.41-1.41-2.09
	l-0.98-4.71h66.43L123.85,32.9z M117.61,32.79l0.3,0l-0.33,0L117.61,32.79z M45.49,97.74c-2.71,0-4.91-2.2-4.91-4.91
	c0-2.71,2.2-4.91,4.91-4.91c2.71,0,4.91,2.2,4.91,4.91C50.4,95.54,48.2,97.74,45.49,97.74z M109.18,97.74
	c-2.71,0-4.91-2.2-4.91-4.91c0-2.71,2.2-4.91,4.91-4.91c2.71,0,4.91,2.2,4.91,4.91C114.09,95.54,111.89,97.74,109.18,97.74z"/>
</svg>
